<svg width="1921" height="653" viewBox="0 0 1921 653" fill="none" xmlns="http://www.w3.org/2000/svg">
<g clip-path="url(#clip0_8_967)">
<g clip-path="url(#clip1_8_967)">
<path d="M1.43799 1.32568V651.37" stroke="#2D2D2D" stroke-width="0.955947"/>
<path d="M33.9399 1.32568V651.37" stroke="#2D2D2D" stroke-width="0.955947"/>
<path d="M66.4424 1.32568V651.37" stroke="#2D2D2D" stroke-width="0.955947"/>
<path d="M98.9443 1.32568V651.37" stroke="#2D2D2D" stroke-width="0.955947"/>
<path d="M131.447 1.32568V651.37" stroke="#2D2D2D" stroke-width="0.955947"/>
<path d="M163.949 1.32568V651.37" stroke="#2D2D2D" stroke-width="0.955947"/>
<path d="M196.451 1.32568V651.37" stroke="#2D2D2D" stroke-width="0.955947"/>
<path d="M228.953 1.32568V651.37" stroke="#2D2D2D" stroke-width="0.955947"/>
<path d="M261.456 1.32568V651.37" stroke="#2D2D2D" stroke-width="0.955947"/>
<path d="M293.958 1.32568V651.37" stroke="#2D2D2D" stroke-width="0.955947"/>
<path d="M326.46 1.32568V651.37" stroke="#2D2D2D" stroke-width="0.955947"/>
<path d="M358.962 1.32568V651.37" stroke="#2D2D2D" stroke-width="0.955947"/>
<path d="M391.464 1.32568V651.37" stroke="#2D2D2D" stroke-width="0.955947"/>
<path d="M423.966 1.32568V651.37" stroke="#2D2D2D" stroke-width="0.955947"/>
<path d="M456.469 1.32568V651.37" stroke="#2D2D2D" stroke-width="0.955947"/>
<path d="M488.971 1.32568V651.37" stroke="#2D2D2D" stroke-width="0.955947"/>
<path d="M521.473 1.32568V651.37" stroke="#2D2D2D" stroke-width="0.955947"/>
<path d="M553.976 1.32568V651.37" stroke="#2D2D2D" stroke-width="0.955947"/>
<path d="M586.478 1.32568V651.37" stroke="#2D2D2D" stroke-width="0.955947"/>
<path d="M618.979 1.32568V651.37" stroke="#2D2D2D" stroke-width="0.955947"/>
<path d="M651.482 1.32568V651.37" stroke="#2D2D2D" stroke-width="0.955947"/>
<path d="M683.984 1.32568V651.37" stroke="#2D2D2D" stroke-width="0.955947"/>
<path d="M716.486 1.32568V651.37" stroke="#2D2D2D" stroke-width="0.955947"/>
<path d="M748.988 1.32568V651.37" stroke="#2D2D2D" stroke-width="0.955947"/>
<path d="M781.491 1.32568V651.37" stroke="#2D2D2D" stroke-width="0.955947"/>
<path d="M813.993 1.32568V651.37" stroke="#2D2D2D" stroke-width="0.955947"/>
<path d="M846.495 1.32568V651.37" stroke="#2D2D2D" stroke-width="0.955947"/>
<path d="M878.998 1.32568V651.37" stroke="#2D2D2D" stroke-width="0.955947"/>
<path d="M911.5 1.32568V651.37" stroke="#2D2D2D" stroke-width="0.955947"/>
<path d="M944.002 1.32568V651.37" stroke="#2D2D2D" stroke-width="0.955947"/>
<path d="M976.504 1.32568V651.37" stroke="#2D2D2D" stroke-width="0.955947"/>
<path d="M1009.01 1.32568V651.37" stroke="#2D2D2D" stroke-width="0.955947"/>
<path d="M1041.51 1.32568V651.37" stroke="#2D2D2D" stroke-width="0.955947"/>
<path d="M1074.01 1.32568V651.37" stroke="#2D2D2D" stroke-width="0.955947"/>
<path d="M1106.51 1.32568V651.37" stroke="#2D2D2D" stroke-width="0.955947"/>
<path d="M1139.02 1.32568V651.37" stroke="#2D2D2D" stroke-width="0.955947"/>
<path d="M1171.52 1.32568V651.37" stroke="#2D2D2D" stroke-width="0.955947"/>
<path d="M1204.02 1.32568V651.37" stroke="#2D2D2D" stroke-width="0.955947"/>
<path d="M1236.52 1.32568V651.37" stroke="#2D2D2D" stroke-width="0.955947"/>
<path d="M1269.02 1.32568V651.37" stroke="#2D2D2D" stroke-width="0.955947"/>
<path d="M1301.53 1.32568V651.37" stroke="#2D2D2D" stroke-width="0.955947"/>
<path d="M1334.03 1.32568V651.37" stroke="#2D2D2D" stroke-width="0.955947"/>
<path d="M1366.53 1.32568V651.37" stroke="#2D2D2D" stroke-width="0.955947"/>
<path d="M1399.03 1.32568V651.37" stroke="#2D2D2D" stroke-width="0.955947"/>
<path d="M1431.53 1.32568V651.37" stroke="#2D2D2D" stroke-width="0.955947"/>
<path d="M1464.04 1.32568V651.37" stroke="#2D2D2D" stroke-width="0.955947"/>
<path d="M1496.54 1.32568V651.37" stroke="#2D2D2D" stroke-width="0.955947"/>
<path d="M1529.04 1.32568V651.37" stroke="#2D2D2D" stroke-width="0.955947"/>
<path d="M1561.54 1.32568V651.37" stroke="#2D2D2D" stroke-width="0.955947"/>
<path d="M1594.05 1.32568V651.37" stroke="#2D2D2D" stroke-width="0.955947"/>
<path d="M1626.55 1.32568V651.37" stroke="#2D2D2D" stroke-width="0.955947"/>
<path d="M1659.05 1.32568V651.37" stroke="#2D2D2D" stroke-width="0.955947"/>
<path d="M1691.55 1.32568V651.37" stroke="#2D2D2D" stroke-width="0.955947"/>
<path d="M1724.05 1.32568V651.37" stroke="#2D2D2D" stroke-width="0.955947"/>
<path d="M1756.56 1.32568V651.37" stroke="#2D2D2D" stroke-width="0.955947"/>
<path d="M1789.06 1.32568V651.37" stroke="#2D2D2D" stroke-width="0.955947"/>
<path d="M1821.56 1.32568V651.37" stroke="#2D2D2D" stroke-width="0.955947"/>
<path d="M1854.06 1.32568V651.37" stroke="#2D2D2D" stroke-width="0.955947"/>
<path d="M1886.57 1.32568V651.37" stroke="#2D2D2D" stroke-width="0.955947"/>
<path d="M1919.07 1.32568V651.37" stroke="#2D2D2D" stroke-width="0.955947"/>
<path d="M1.43799 1.32568H2536.61" stroke="#2D2D2D" stroke-width="0.955947"/>
<path d="M1.43799 33.8279H2536.61" stroke="#2D2D2D" stroke-width="0.955947"/>
<path d="M1.43799 66.3301H2536.61" stroke="#2D2D2D" stroke-width="0.955947"/>
<path d="M1.43799 98.8323H2536.61" stroke="#2D2D2D" stroke-width="0.955947"/>
<path d="M1.43799 131.335H2536.61" stroke="#2D2D2D" stroke-width="0.955947"/>
<path d="M1.43799 163.837H2536.61" stroke="#2D2D2D" stroke-width="0.955947"/>
<path d="M1.43799 196.339H2536.61" stroke="#2D2D2D" stroke-width="0.955947"/>
<path d="M1.43799 228.841H2536.61" stroke="#2D2D2D" stroke-width="0.955947"/>
<path d="M1.43799 261.343H2536.61" stroke="#2D2D2D" stroke-width="0.955947"/>
<path d="M1.43799 293.846H2536.61" stroke="#2D2D2D" stroke-width="0.955947"/>
<path d="M1.43799 326.348H2536.61" stroke="#2D2D2D" stroke-width="0.955947"/>
<path d="M1.43799 358.85H2536.61" stroke="#2D2D2D" stroke-width="0.955947"/>
<path d="M1.43799 391.352H2536.61" stroke="#2D2D2D" stroke-width="0.955947"/>
<path d="M1.43799 423.854H2536.61" stroke="#2D2D2D" stroke-width="0.955947"/>
<path d="M1.43799 456.357H2536.61" stroke="#2D2D2D" stroke-width="0.955947"/>
<path d="M1.43799 488.859H2536.61" stroke="#2D2D2D" stroke-width="0.955947"/>
<path d="M1.43799 521.361H2536.61" stroke="#2D2D2D" stroke-width="0.955947"/>
<path d="M1.43799 553.863H2536.61" stroke="#2D2D2D" stroke-width="0.955947"/>
<path d="M1.43799 586.365H2536.61" stroke="#2D2D2D" stroke-width="0.955947"/>
<path d="M1.43799 618.868H2536.61" stroke="#2D2D2D" stroke-width="0.955947"/>
</g>
</g>
<defs>
<clipPath id="clip0_8_967">
<rect width="1920" height="652" fill="white" transform="translate(0.481934 0.369751)"/>
</clipPath>
<clipPath id="clip1_8_967">
<rect width="2536.13" height="651" fill="white" transform="translate(0.481934 0.369751)"/>
</clipPath>
</defs>
</svg>
